<svg xmlns="http://www.w3.org/2000/svg" xmlns:xlink="http://www.w3.org/1999/xlink" contentStyleType="text/css" height="365px" preserveAspectRatio="none" style="width:796px;height:365px;background:#FFFFFF;" version="1.1" viewBox="0 0 796 365" width="796px" zoomAndPan="magnify"><defs/><g><!--class MeuIphone--><g id="elem_MeuIphone"><rect codeLine="3" fill="#F1F1F1" height="64.2969" id="MeuIphone" rx="2.5" ry="2.5" style="stroke:#181818;stroke-width:0.5;" width="166" x="18" y="229.08"/><ellipse cx="58.2" cy="245.08" fill="#ADD1B2" rx="11" ry="11" style="stroke:#181818;stroke-width:1.0;"/><path d="M61.1688,250.7206 Q60.5906,251.0175 59.95,251.1581 Q59.3094,251.3144 58.6063,251.3144 Q56.1063,251.3144 54.7781,249.6738 Q53.4656,248.0175 53.4656,244.8925 Q53.4656,241.7675 54.7781,240.1113 Q56.1063,238.455 58.6063,238.455 Q59.3094,238.455 59.95,238.6113 Q60.6063,238.7675 61.1688,239.0644 L61.1688,241.7831 Q60.5438,241.205 59.95,240.9394 Q59.3563,240.6581 58.7313,240.6581 Q57.3875,240.6581 56.7,241.7363 Q56.0125,242.7988 56.0125,244.8925 Q56.0125,246.9863 56.7,248.0644 Q57.3875,249.1269 58.7313,249.1269 Q59.3563,249.1269 59.95,248.8613 Q60.5438,248.58 61.1688,248.0019 L61.1688,250.7206 Z " fill="#000000"/><text fill="#000000" font-family="sans-serif" font-size="14" lengthAdjust="spacing" textLength="78" x="77.8" y="249.9267">MeuIphone</text><line style="stroke:#181818;stroke-width:0.5;" x1="19" x2="183" y1="261.08" y2="261.08"/><ellipse cx="29" cy="274.7284" fill="none" rx="3" ry="3" style="stroke:#038048;stroke-width:1.0;"/><text fill="#000000" font-family="sans-serif" font-size="14" lengthAdjust="spacing" textLength="140" x="38" y="278.0751">meuIphone : Iphone</text><line style="stroke:#181818;stroke-width:0.5;" x1="19" x2="183" y1="285.3769" y2="285.3769"/></g><!--class Iphone--><g id="elem_Iphone"><rect codeLine="7" fill="#F1F1F1" height="194.6719" id="Iphone" rx="2.5" ry="2.5" style="stroke:#181818;stroke-width:0.5;" width="289" x="219.5" y="163.89"/><ellipse cx="335.75" cy="179.89" fill="#ADD1B2" rx="11" ry="11" style="stroke:#181818;stroke-width:1.0;"/><path d="M338.7188,185.5306 Q338.1406,185.8275 337.5,185.9681 Q336.8594,186.1244 336.1563,186.1244 Q333.6563,186.1244 332.3281,184.4838 Q331.0156,182.8275 331.0156,179.7025 Q331.0156,176.5775 332.3281,174.9213 Q333.6563,173.265 336.1563,173.265 Q336.8594,173.265 337.5,173.4213 Q338.1563,173.5775 338.7188,173.8744 L338.7188,176.5931 Q338.0938,176.015 337.5,175.7494 Q336.9063,175.4681 336.2813,175.4681 Q334.9375,175.4681 334.25,176.5463 Q333.5625,177.6088 333.5625,179.7025 Q333.5625,181.7963 334.25,182.8744 Q334.9375,183.9369 336.2813,183.9369 Q336.9063,183.9369 337.5,183.6713 Q338.0938,183.39 338.7188,182.8119 L338.7188,185.5306 Z " fill="#000000"/><text fill="#000000" font-family="sans-serif" font-size="14" lengthAdjust="spacing" textLength="48" x="356.25" y="184.7367">Iphone</text><line style="stroke:#181818;stroke-width:0.5;" x1="220.5" x2="507.5" y1="195.89" y2="195.89"/><line style="stroke:#181818;stroke-width:0.5;" x1="220.5" x2="507.5" y1="203.89" y2="203.89"/><ellipse cx="230.5" cy="217.5384" fill="#84BE84" rx="3" ry="3" style="stroke:#038048;stroke-width:1.0;"/><text fill="#000000" font-family="sans-serif" font-size="14" lengthAdjust="spacing" textLength="86" x="239.5" y="220.8851">tocar() : void</text><ellipse cx="230.5" cy="233.8353" fill="#84BE84" rx="3" ry="3" style="stroke:#038048;stroke-width:1.0;"/><text fill="#000000" font-family="sans-serif" font-size="14" lengthAdjust="spacing" textLength="98" x="239.5" y="237.182">pausar() : void</text><ellipse cx="230.5" cy="250.1322" fill="#84BE84" rx="3" ry="3" style="stroke:#038048;stroke-width:1.0;"/><text fill="#000000" font-family="sans-serif" font-size="14" lengthAdjust="spacing" textLength="263" x="239.5" y="253.4789">selecionarMusica(String musica) : void</text><ellipse cx="230.5" cy="266.4291" fill="#84BE84" rx="3" ry="3" style="stroke:#038048;stroke-width:1.0;"/><text fill="#000000" font-family="sans-serif" font-size="14" lengthAdjust="spacing" textLength="177" x="239.5" y="269.7757">ligar(String numero) : void</text><ellipse cx="230.5" cy="282.7259" fill="#84BE84" rx="3" ry="3" style="stroke:#038048;stroke-width:1.0;"/><text fill="#000000" font-family="sans-serif" font-size="14" lengthAdjust="spacing" textLength="105" x="239.5" y="286.0726">atender() : void</text><ellipse cx="230.5" cy="299.0228" fill="#84BE84" rx="3" ry="3" style="stroke:#038048;stroke-width:1.0;"/><text fill="#000000" font-family="sans-serif" font-size="14" lengthAdjust="spacing" textLength="166" x="239.5" y="302.3695">iniciarCorreioVoz() : void</text><ellipse cx="230.5" cy="315.3197" fill="#84BE84" rx="3" ry="3" style="stroke:#038048;stroke-width:1.0;"/><text fill="#000000" font-family="sans-serif" font-size="14" lengthAdjust="spacing" textLength="194" x="239.5" y="318.6664">exibirPagina(String url) : void</text><ellipse cx="230.5" cy="331.6166" fill="#84BE84" rx="3" ry="3" style="stroke:#038048;stroke-width:1.0;"/><text fill="#000000" font-family="sans-serif" font-size="14" lengthAdjust="spacing" textLength="173" x="239.5" y="334.9632">adicionarNovaAba() : void</text><ellipse cx="230.5" cy="347.9134" fill="#84BE84" rx="3" ry="3" style="stroke:#038048;stroke-width:1.0;"/><text fill="#000000" font-family="sans-serif" font-size="14" lengthAdjust="spacing" textLength="154" x="239.5" y="351.2601">atualizarPagina() : void</text></g><!--class ReprodutorMusical--><g id="elem_ReprodutorMusical"><rect codeLine="19" fill="#F1F1F1" height="96.8906" id="ReprodutorMusical" rx="2.5" ry="2.5" style="stroke:#181818;stroke-width:0.5;" width="289" x="500.5" y="7"/><ellipse cx="575.75" cy="23" fill="#B4A7E5" rx="11" ry="11" style="stroke:#181818;stroke-width:1.0;"/><path d="M571.6719,18.7656 L571.6719,16.6094 L579.0625,16.6094 L579.0625,18.7656 L576.5938,18.7656 L576.5938,26.8438 L579.0625,26.8438 L579.0625,29 L571.6719,29 L571.6719,26.8438 L574.1406,26.8438 L574.1406,18.7656 L571.6719,18.7656 Z " fill="#000000"/><text fill="#000000" font-family="sans-serif" font-size="14" font-style="italic" lengthAdjust="spacing" textLength="130" x="596.25" y="27.8467">ReprodutorMusical</text><line style="stroke:#181818;stroke-width:0.5;" x1="501.5" x2="788.5" y1="39" y2="39"/><line style="stroke:#181818;stroke-width:0.5;" x1="501.5" x2="788.5" y1="47" y2="47"/><ellipse cx="511.5" cy="60.6484" fill="#84BE84" rx="3" ry="3" style="stroke:#038048;stroke-width:1.0;"/><text fill="#000000" font-family="sans-serif" font-size="14" lengthAdjust="spacing" textLength="86" x="520.5" y="63.9951">tocar() : void</text><ellipse cx="511.5" cy="76.9453" fill="#84BE84" rx="3" ry="3" style="stroke:#038048;stroke-width:1.0;"/><text fill="#000000" font-family="sans-serif" font-size="14" lengthAdjust="spacing" textLength="98" x="520.5" y="80.292">pausar() : void</text><ellipse cx="511.5" cy="93.2422" fill="#84BE84" rx="3" ry="3" style="stroke:#038048;stroke-width:1.0;"/><text fill="#000000" font-family="sans-serif" font-size="14" lengthAdjust="spacing" textLength="263" x="520.5" y="96.5889">selecionarMusica(String musica) : void</text></g><!--class AparelhoTelefonico--><g id="elem_AparelhoTelefonico"><rect codeLine="25" fill="#F1F1F1" height="96.8906" id="AparelhoTelefonico" rx="2.5" ry="2.5" style="stroke:#181818;stroke-width:0.5;" width="203" x="262.5" y="7"/><ellipse cx="294.6" cy="23" fill="#B4A7E5" rx="11" ry="11" style="stroke:#181818;stroke-width:1.0;"/><path d="M290.5219,18.7656 L290.5219,16.6094 L297.9125,16.6094 L297.9125,18.7656 L295.4438,18.7656 L295.4438,26.8438 L297.9125,26.8438 L297.9125,29 L290.5219,29 L290.5219,26.8438 L292.9906,26.8438 L292.9906,18.7656 L290.5219,18.7656 Z " fill="#000000"/><text fill="#000000" font-family="sans-serif" font-size="14" font-style="italic" lengthAdjust="spacing" textLength="133" x="312.4" y="27.8467">AparelhoTelefonico</text><line style="stroke:#181818;stroke-width:0.5;" x1="263.5" x2="464.5" y1="39" y2="39"/><line style="stroke:#181818;stroke-width:0.5;" x1="263.5" x2="464.5" y1="47" y2="47"/><ellipse cx="273.5" cy="60.6484" fill="#84BE84" rx="3" ry="3" style="stroke:#038048;stroke-width:1.0;"/><text fill="#000000" font-family="sans-serif" font-size="14" lengthAdjust="spacing" textLength="177" x="282.5" y="63.9951">ligar(String numero) : void</text><ellipse cx="273.5" cy="76.9453" fill="#84BE84" rx="3" ry="3" style="stroke:#038048;stroke-width:1.0;"/><text fill="#000000" font-family="sans-serif" font-size="14" lengthAdjust="spacing" textLength="105" x="282.5" y="80.292">atender() : void</text><ellipse cx="273.5" cy="93.2422" fill="#84BE84" rx="3" ry="3" style="stroke:#038048;stroke-width:1.0;"/><text fill="#000000" font-family="sans-serif" font-size="14" lengthAdjust="spacing" textLength="166" x="282.5" y="96.5889">iniciarCorreioVoz() : void</text></g><!--class NavegadorInternet--><g id="elem_NavegadorInternet"><rect codeLine="31" fill="#F1F1F1" height="96.8906" id="NavegadorInternet" rx="2.5" ry="2.5" style="stroke:#181818;stroke-width:0.5;" width="220" x="7" y="7"/><ellipse cx="49" cy="23" fill="#B4A7E5" rx="11" ry="11" style="stroke:#181818;stroke-width:1.0;"/><path d="M44.9219,18.7656 L44.9219,16.6094 L52.3125,16.6094 L52.3125,18.7656 L49.8438,18.7656 L49.8438,26.8438 L52.3125,26.8438 L52.3125,29 L44.9219,29 L44.9219,26.8438 L47.3906,26.8438 L47.3906,18.7656 L44.9219,18.7656 Z " fill="#000000"/><text fill="#000000" font-family="sans-serif" font-size="14" font-style="italic" lengthAdjust="spacing" textLength="128" x="69" y="27.8467">NavegadorInternet</text><line style="stroke:#181818;stroke-width:0.5;" x1="8" x2="226" y1="39" y2="39"/><line style="stroke:#181818;stroke-width:0.5;" x1="8" x2="226" y1="47" y2="47"/><ellipse cx="18" cy="60.6484" fill="#84BE84" rx="3" ry="3" style="stroke:#038048;stroke-width:1.0;"/><text fill="#000000" font-family="sans-serif" font-size="14" lengthAdjust="spacing" textLength="194" x="27" y="63.9951">exibirPagina(String url) : void</text><ellipse cx="18" cy="76.9453" fill="#84BE84" rx="3" ry="3" style="stroke:#038048;stroke-width:1.0;"/><text fill="#000000" font-family="sans-serif" font-size="14" lengthAdjust="spacing" textLength="173" x="27" y="80.292">adicionarNovaAba() : void</text><ellipse cx="18" cy="93.2422" fill="#84BE84" rx="3" ry="3" style="stroke:#038048;stroke-width:1.0;"/><text fill="#000000" font-family="sans-serif" font-size="14" lengthAdjust="spacing" textLength="154" x="27" y="96.5889">atualizarPagina() : void</text></g><!--reverse link MeuIphone to Iphone--><g id="link_MeuIphone_Iphone"><path codeLine="37" d="M196.47,261.22 C208.04,261.22 207.61,261.22 219.19,261.22 " fill="none" id="MeuIphone-backto-Iphone" style="stroke:#181818;stroke-width:1.0;"/><polygon fill="#181818" points="184.47,261.22,190.47,265.22,196.47,261.22,190.47,257.22,184.47,261.22" style="stroke:#181818;stroke-width:1.0;"/></g><!--reverse link ReprodutorMusical to Iphone--><g id="link_ReprodutorMusical_Iphone"><path codeLine="38" d="M564.5463,114.7844 C540.0463,132.5444 525.87,142.84 497.49,163.42 " fill="none" id="ReprodutorMusical-backto-Iphone" style="stroke:#181818;stroke-width:1.0;"/><polygon fill="none" points="579.12,104.22,561.0248,109.9265,568.0678,119.6423,579.12,104.22" style="stroke:#181818;stroke-width:1.0;"/></g><!--reverse link AparelhoTelefonico to Iphone--><g id="link_AparelhoTelefonico_Iphone"><path codeLine="39" d="M364,122.22 C364,139.98 364,142.84 364,163.42 " fill="none" id="AparelhoTelefonico-backto-Iphone" style="stroke:#181818;stroke-width:1.0;"/><polygon fill="none" points="364,104.22,358,122.22,370,122.22,364,104.22" style="stroke:#181818;stroke-width:1.0;"/></g><!--reverse link NavegadorInternet to Iphone--><g id="link_NavegadorInternet_Iphone"><path codeLine="40" d="M188.7954,115.674 C210.3254,133.434 221.72,142.84 246.66,163.42 " fill="none" id="NavegadorInternet-backto-Iphone" style="stroke:#181818;stroke-width:1.0;"/><polygon fill="none" points="174.91,104.22,184.9774,120.3025,192.6134,111.0456,174.91,104.22" style="stroke:#181818;stroke-width:1.0;"/></g><!--SRC=[jP8nJyCm48Nt_0fl5538tW6fOkhG2W5YlzhNv2J7Prti21NuxvZY1DMPwyb-_dpl_EoRBWG_h9l6Mt0XzlP1Szze2yDG6u9MeA-gyrBjC6vznmxLPwNIk5VzhAnLdgZgU-8BEB06MTqcT6GoMVGGXwKwe4LDx41sSI0DgzSWv5hLdrS5RAbD5JBXOe_24w4o0W6TmOKDET84yiGYIFpEfnB03pgGF4DBRkuXYYqeCFJNx9v7s1oWh08XWgKJJ8NcxPGKkO1o18tg1RsmYO7pdUqLWximtdWGj1s_fRD7Jf7mx7oLQ2_Czp1Y2uPb-oiv3BFtzRF__yztjL3RXJf_sIhBTVJrr-FoPOhzPO05iBZa3m00]--></g></svg>