<svg xmlns="http://www.w3.org/2000/svg" xmlns:xlink="http://www.w3.org/1999/xlink" contentStyleType="text/css" height="561px" preserveAspectRatio="none" style="width:1200px;height:561px;background:#FFFFFF;" version="1.1" viewBox="0 0 1200 561" width="1200px" zoomAndPan="magnify"><defs/><g><!--class Candidato--><g id="elem_Candidato"><rect codeLine="1" fill="#F1F1F1" height="145.7813" id="Candidato" rx="2.5" ry="2.5" style="stroke:#181818;stroke-width:0.5;" width="225" x="471" y="7"/><ellipse cx="544.25" cy="23" fill="#ADD1B2" rx="11" ry="11" style="stroke:#181818;stroke-width:1.0;"/><path d="M547.2188,28.6406 Q546.6406,28.9375 546,29.0781 Q545.3594,29.2344 544.6563,29.2344 Q542.1563,29.2344 540.8281,27.5938 Q539.5156,25.9375 539.5156,22.8125 Q539.5156,19.6875 540.8281,18.0313 Q542.1563,16.375 544.6563,16.375 Q545.3594,16.375 546,16.5313 Q546.6563,16.6875 547.2188,16.9844 L547.2188,19.7031 Q546.5938,19.125 546,18.8594 Q545.4063,18.5781 544.7813,18.5781 Q543.4375,18.5781 542.75,19.6563 Q542.0625,20.7188 542.0625,22.8125 Q542.0625,24.9063 542.75,25.9844 Q543.4375,27.0469 544.7813,27.0469 Q545.4063,27.0469 546,26.7813 Q546.5938,26.5 547.2188,25.9219 L547.2188,28.6406 Z " fill="#000000"/><text fill="#000000" font-family="sans-serif" font-size="14" lengthAdjust="spacing" textLength="70" x="564.75" y="27.8467">Candidato</text><line style="stroke:#181818;stroke-width:0.5;" x1="472" x2="695" y1="39" y2="39"/><rect fill="none" height="6" style="stroke:#C82930;stroke-width:1.0;" width="6" x="479" y="49.6484"/><text fill="#000000" font-family="sans-serif" font-size="14" lengthAdjust="spacing" textLength="89" x="491" y="55.9951">nome: String</text><rect fill="none" height="6" style="stroke:#C82930;stroke-width:1.0;" width="6" x="479" y="65.9453"/><text fill="#000000" font-family="sans-serif" font-size="14" lengthAdjust="spacing" textLength="70" x="491" y="72.292">cpf: String</text><line style="stroke:#181818;stroke-width:0.5;" x1="472" x2="695" y1="79.5938" y2="79.5938"/><ellipse cx="482" cy="93.2422" fill="#84BE84" rx="3" ry="3" style="stroke:#038048;stroke-width:1.0;"/><text fill="#000000" font-family="sans-serif" font-size="14" lengthAdjust="spacing" textLength="123" x="491" y="96.5889">getNome(): String</text><ellipse cx="482" cy="109.5391" fill="#84BE84" rx="3" ry="3" style="stroke:#038048;stroke-width:1.0;"/><text fill="#000000" font-family="sans-serif" font-size="14" lengthAdjust="spacing" textLength="105" x="491" y="112.8857">getCpf(): String</text><ellipse cx="482" cy="125.8359" fill="#84BE84" rx="3" ry="3" style="stroke:#038048;stroke-width:1.0;"/><text fill="#000000" font-family="sans-serif" font-size="14" lengthAdjust="spacing" textLength="199" x="491" y="129.1826">setNome(nome: String): void</text><ellipse cx="482" cy="142.1328" fill="#84BE84" rx="3" ry="3" style="stroke:#038048;stroke-width:1.0;"/><text fill="#000000" font-family="sans-serif" font-size="14" lengthAdjust="spacing" textLength="162" x="491" y="145.4795">setCpf(cpf: String): void</text></g><!--class Telefone--><g id="elem_Telefone"><rect codeLine="10" fill="#F1F1F1" height="96.8906" id="Telefone" rx="2.5" ry="2.5" style="stroke:#181818;stroke-width:0.5;" width="239" x="7" y="335"/><ellipse cx="91.75" cy="351" fill="#ADD1B2" rx="11" ry="11" style="stroke:#181818;stroke-width:1.0;"/><path d="M94.7188,356.6406 Q94.1406,356.9375 93.5,357.0781 Q92.8594,357.2344 92.1563,357.2344 Q89.6563,357.2344 88.3281,355.5938 Q87.0156,353.9375 87.0156,350.8125 Q87.0156,347.6875 88.3281,346.0313 Q89.6563,344.375 92.1563,344.375 Q92.8594,344.375 93.5,344.5313 Q94.1563,344.6875 94.7188,344.9844 L94.7188,347.7031 Q94.0938,347.125 93.5,346.8594 Q92.9063,346.5781 92.2813,346.5781 Q90.9375,346.5781 90.25,347.6563 Q89.5625,348.7188 89.5625,350.8125 Q89.5625,352.9063 90.25,353.9844 Q90.9375,355.0469 92.2813,355.0469 Q92.9063,355.0469 93.5,354.7813 Q94.0938,354.5 94.7188,353.9219 L94.7188,356.6406 Z " fill="#000000"/><text fill="#000000" font-family="sans-serif" font-size="14" lengthAdjust="spacing" textLength="61" x="112.25" y="355.8467">Telefone</text><line style="stroke:#181818;stroke-width:0.5;" x1="8" x2="245" y1="367" y2="367"/><rect fill="none" height="6" style="stroke:#C82930;stroke-width:1.0;" width="6" x="15" y="377.6484"/><text fill="#000000" font-family="sans-serif" font-size="14" lengthAdjust="spacing" textLength="83" x="27" y="383.9951">telefone: int</text><line style="stroke:#181818;stroke-width:0.5;" x1="8" x2="245" y1="391.2969" y2="391.2969"/><ellipse cx="18" cy="404.9453" fill="#84BE84" rx="3" ry="3" style="stroke:#038048;stroke-width:1.0;"/><text fill="#000000" font-family="sans-serif" font-size="14" lengthAdjust="spacing" textLength="120" x="27" y="408.292">getTelefone(): int</text><ellipse cx="18" cy="421.2422" fill="#84BE84" rx="3" ry="3" style="stroke:#038048;stroke-width:1.0;"/><text fill="#000000" font-family="sans-serif" font-size="14" lengthAdjust="spacing" textLength="213" x="27" y="424.5889">setTelefone(telefone: int): void</text></g><!--class Profissao--><g id="elem_Profissao"><rect codeLine="16" fill="#F1F1F1" height="96.8906" id="Profissao" rx="2.5" ry="2.5" style="stroke:#181818;stroke-width:0.5;" width="270" x="280.5" y="335"/><ellipse cx="379.75" cy="351" fill="#ADD1B2" rx="11" ry="11" style="stroke:#181818;stroke-width:1.0;"/><path d="M382.7188,356.6406 Q382.1406,356.9375 381.5,357.0781 Q380.8594,357.2344 380.1563,357.2344 Q377.6563,357.2344 376.3281,355.5938 Q375.0156,353.9375 375.0156,350.8125 Q375.0156,347.6875 376.3281,346.0313 Q377.6563,344.375 380.1563,344.375 Q380.8594,344.375 381.5,344.5313 Q382.1563,344.6875 382.7188,344.9844 L382.7188,347.7031 Q382.0938,347.125 381.5,346.8594 Q380.9063,346.5781 380.2813,346.5781 Q378.9375,346.5781 378.25,347.6563 Q377.5625,348.7188 377.5625,350.8125 Q377.5625,352.9063 378.25,353.9844 Q378.9375,355.0469 380.2813,355.0469 Q380.9063,355.0469 381.5,354.7813 Q382.0938,354.5 382.7188,353.9219 L382.7188,356.6406 Z " fill="#000000"/><text fill="#000000" font-family="sans-serif" font-size="14" lengthAdjust="spacing" textLength="63" x="400.25" y="355.8467">Profissao</text><line style="stroke:#181818;stroke-width:0.5;" x1="281.5" x2="549.5" y1="367" y2="367"/><rect fill="none" height="6" style="stroke:#C82930;stroke-width:1.0;" width="6" x="288.5" y="377.6484"/><text fill="#000000" font-family="sans-serif" font-size="14" lengthAdjust="spacing" textLength="112" x="300.5" y="383.9951">profissao: String</text><line style="stroke:#181818;stroke-width:0.5;" x1="281.5" x2="549.5" y1="391.2969" y2="391.2969"/><ellipse cx="291.5" cy="404.9453" fill="#84BE84" rx="3" ry="3" style="stroke:#038048;stroke-width:1.0;"/><text fill="#000000" font-family="sans-serif" font-size="14" lengthAdjust="spacing" textLength="145" x="300.5" y="408.292">getProfissao(): String</text><ellipse cx="291.5" cy="421.2422" fill="#84BE84" rx="3" ry="3" style="stroke:#038048;stroke-width:1.0;"/><text fill="#000000" font-family="sans-serif" font-size="14" lengthAdjust="spacing" textLength="244" x="300.5" y="424.5889">setProfissao(profissao: String): void</text></g><!--class Admissao--><g id="elem_Admissao"><rect codeLine="22" fill="#F1F1F1" height="145.7813" id="Admissao" rx="2.5" ry="2.5" style="stroke:#181818;stroke-width:0.5;" width="333" x="586" y="310.56"/><ellipse cx="714.75" cy="326.56" fill="#ADD1B2" rx="11" ry="11" style="stroke:#181818;stroke-width:1.0;"/><path d="M717.7188,332.2006 Q717.1406,332.4975 716.5,332.6381 Q715.8594,332.7944 715.1563,332.7944 Q712.6563,332.7944 711.3281,331.1538 Q710.0156,329.4975 710.0156,326.3725 Q710.0156,323.2475 711.3281,321.5913 Q712.6563,319.935 715.1563,319.935 Q715.8594,319.935 716.5,320.0913 Q717.1563,320.2475 717.7188,320.5444 L717.7188,323.2631 Q717.0938,322.685 716.5,322.4194 Q715.9063,322.1381 715.2813,322.1381 Q713.9375,322.1381 713.25,323.2163 Q712.5625,324.2788 712.5625,326.3725 Q712.5625,328.4663 713.25,329.5444 Q713.9375,330.6069 715.2813,330.6069 Q715.9063,330.6069 716.5,330.3413 Q717.0938,330.06 717.7188,329.4819 L717.7188,332.2006 Z " fill="#000000"/><text fill="#000000" font-family="sans-serif" font-size="14" lengthAdjust="spacing" textLength="67" x="735.25" y="331.4067">Admissao</text><line style="stroke:#181818;stroke-width:0.5;" x1="587" x2="918" y1="342.56" y2="342.56"/><rect fill="none" height="6" style="stroke:#C82930;stroke-width:1.0;" width="6" x="594" y="353.2084"/><text fill="#000000" font-family="sans-serif" font-size="14" lengthAdjust="spacing" textLength="139" x="606" y="359.5551">dataAdmissao: Date</text><rect fill="none" height="6" style="stroke:#C82930;stroke-width:1.0;" width="6" x="594" y="369.5053"/><text fill="#000000" font-family="sans-serif" font-size="14" lengthAdjust="spacing" textLength="59" x="606" y="375.852">DDD: int</text><line style="stroke:#181818;stroke-width:0.5;" x1="587" x2="918" y1="383.1538" y2="383.1538"/><ellipse cx="597" cy="396.8022" fill="#84BE84" rx="3" ry="3" style="stroke:#038048;stroke-width:1.0;"/><text fill="#000000" font-family="sans-serif" font-size="14" lengthAdjust="spacing" textLength="174" x="606" y="400.1489">getDataAdmissao(): Date</text><ellipse cx="597" cy="413.0991" fill="#84BE84" rx="3" ry="3" style="stroke:#038048;stroke-width:1.0;"/><text fill="#000000" font-family="sans-serif" font-size="14" lengthAdjust="spacing" textLength="307" x="606" y="416.4457">setDataAdmissao(dataAdmissao: Date): void</text><ellipse cx="597" cy="429.3959" fill="#84BE84" rx="3" ry="3" style="stroke:#038048;stroke-width:1.0;"/><text fill="#000000" font-family="sans-serif" font-size="14" lengthAdjust="spacing" textLength="92" x="606" y="432.7426">getDDD(): int</text><ellipse cx="597" cy="445.6928" fill="#84BE84" rx="3" ry="3" style="stroke:#038048;stroke-width:1.0;"/><text fill="#000000" font-family="sans-serif" font-size="14" lengthAdjust="spacing" textLength="161" x="606" y="449.0395">setDDD(DDD: int): void</text></g><!--class Endereco--><g id="elem_Endereco"><rect codeLine="31" fill="#F1F1F1" height="341.3438" id="Endereco" rx="2.5" ry="2.5" style="stroke:#181818;stroke-width:0.5;" width="240" x="953.5" y="212.78"/><ellipse cx="1035.75" cy="228.78" fill="#ADD1B2" rx="11" ry="11" style="stroke:#181818;stroke-width:1.0;"/><path d="M1038.7188,234.4206 Q1038.1406,234.7175 1037.5,234.8581 Q1036.8594,235.0144 1036.1563,235.0144 Q1033.6563,235.0144 1032.3281,233.3738 Q1031.0156,231.7175 1031.0156,228.5925 Q1031.0156,225.4675 1032.3281,223.8113 Q1033.6563,222.155 1036.1563,222.155 Q1036.8594,222.155 1037.5,222.3113 Q1038.1563,222.4675 1038.7188,222.7644 L1038.7188,225.4831 Q1038.0938,224.905 1037.5,224.6394 Q1036.9063,224.3581 1036.2813,224.3581 Q1034.9375,224.3581 1034.25,225.4363 Q1033.5625,226.4988 1033.5625,228.5925 Q1033.5625,230.6863 1034.25,231.7644 Q1034.9375,232.8269 1036.2813,232.8269 Q1036.9063,232.8269 1037.5,232.5613 Q1038.0938,232.28 1038.7188,231.7019 L1038.7188,234.4206 Z " fill="#000000"/><text fill="#000000" font-family="sans-serif" font-size="14" lengthAdjust="spacing" textLength="67" x="1056.25" y="233.6267">Endereco</text><line style="stroke:#181818;stroke-width:0.5;" x1="954.5" x2="1192.5" y1="244.78" y2="244.78"/><rect fill="none" height="6" style="stroke:#C82930;stroke-width:1.0;" width="6" x="961.5" y="255.4284"/><text fill="#000000" font-family="sans-serif" font-size="14" lengthAdjust="spacing" textLength="71" x="973.5" y="261.7751">rua: String</text><rect fill="none" height="6" style="stroke:#C82930;stroke-width:1.0;" width="6" x="961.5" y="271.7253"/><text fill="#000000" font-family="sans-serif" font-size="14" lengthAdjust="spacing" textLength="80" x="973.5" y="278.072">numero: int</text><rect fill="none" height="6" style="stroke:#C82930;stroke-width:1.0;" width="6" x="961.5" y="288.0222"/><text fill="#000000" font-family="sans-serif" font-size="14" lengthAdjust="spacing" textLength="88" x="973.5" y="294.3689">bairro: String</text><rect fill="none" height="6" style="stroke:#C82930;stroke-width:1.0;" width="6" x="961.5" y="304.3191"/><text fill="#000000" font-family="sans-serif" font-size="14" lengthAdjust="spacing" textLength="95" x="973.5" y="310.6657">cidade: String</text><rect fill="none" height="6" style="stroke:#C82930;stroke-width:1.0;" width="6" x="961.5" y="320.6159"/><text fill="#000000" font-family="sans-serif" font-size="14" lengthAdjust="spacing" textLength="97" x="973.5" y="326.9626">estado: String</text><rect fill="none" height="6" style="stroke:#C82930;stroke-width:1.0;" width="6" x="961.5" y="336.9128"/><text fill="#000000" font-family="sans-serif" font-size="14" lengthAdjust="spacing" textLength="75" x="973.5" y="343.2595">cep: String</text><line style="stroke:#181818;stroke-width:0.5;" x1="954.5" x2="1192.5" y1="350.5613" y2="350.5613"/><ellipse cx="964.5" cy="364.2097" fill="#84BE84" rx="3" ry="3" style="stroke:#038048;stroke-width:1.0;"/><text fill="#000000" font-family="sans-serif" font-size="14" lengthAdjust="spacing" textLength="109" x="973.5" y="367.5564">getRua(): String</text><ellipse cx="964.5" cy="380.5066" fill="#84BE84" rx="3" ry="3" style="stroke:#038048;stroke-width:1.0;"/><text fill="#000000" font-family="sans-serif" font-size="14" lengthAdjust="spacing" textLength="114" x="973.5" y="383.8532">getNumero(): int</text><ellipse cx="964.5" cy="396.8034" fill="#84BE84" rx="3" ry="3" style="stroke:#038048;stroke-width:1.0;"/><text fill="#000000" font-family="sans-serif" font-size="14" lengthAdjust="spacing" textLength="122" x="973.5" y="400.1501">getBairro(): String</text><ellipse cx="964.5" cy="413.1003" fill="#84BE84" rx="3" ry="3" style="stroke:#038048;stroke-width:1.0;"/><text fill="#000000" font-family="sans-serif" font-size="14" lengthAdjust="spacing" textLength="130" x="973.5" y="416.447">getCidade(): String</text><ellipse cx="964.5" cy="429.3972" fill="#84BE84" rx="3" ry="3" style="stroke:#038048;stroke-width:1.0;"/><text fill="#000000" font-family="sans-serif" font-size="14" lengthAdjust="spacing" textLength="130" x="973.5" y="432.7439">getEstado(): String</text><ellipse cx="964.5" cy="445.6941" fill="#84BE84" rx="3" ry="3" style="stroke:#038048;stroke-width:1.0;"/><text fill="#000000" font-family="sans-serif" font-size="14" lengthAdjust="spacing" textLength="110" x="973.5" y="449.0407">getCep(): String</text><ellipse cx="964.5" cy="461.9909" fill="#84BE84" rx="3" ry="3" style="stroke:#038048;stroke-width:1.0;"/><text fill="#000000" font-family="sans-serif" font-size="14" lengthAdjust="spacing" textLength="167" x="973.5" y="465.3376">setRua(rua: String): void</text><ellipse cx="964.5" cy="478.2878" fill="#84BE84" rx="3" ry="3" style="stroke:#038048;stroke-width:1.0;"/><text fill="#000000" font-family="sans-serif" font-size="14" lengthAdjust="spacing" textLength="204" x="973.5" y="481.6345">setNumero(numero: int): void</text><ellipse cx="964.5" cy="494.5847" fill="#84BE84" rx="3" ry="3" style="stroke:#038048;stroke-width:1.0;"/><text fill="#000000" font-family="sans-serif" font-size="14" lengthAdjust="spacing" textLength="197" x="973.5" y="497.9314">setBairro(bairro: String): void</text><ellipse cx="964.5" cy="510.8816" fill="#84BE84" rx="3" ry="3" style="stroke:#038048;stroke-width:1.0;"/><text fill="#000000" font-family="sans-serif" font-size="14" lengthAdjust="spacing" textLength="212" x="973.5" y="514.2282">setCidade(cidade: String): void</text><ellipse cx="964.5" cy="527.1784" fill="#84BE84" rx="3" ry="3" style="stroke:#038048;stroke-width:1.0;"/><text fill="#000000" font-family="sans-serif" font-size="14" lengthAdjust="spacing" textLength="214" x="973.5" y="530.5251">setEstado(estado: String): void</text><ellipse cx="964.5" cy="543.4753" fill="#84BE84" rx="3" ry="3" style="stroke:#038048;stroke-width:1.0;"/><text fill="#000000" font-family="sans-serif" font-size="14" lengthAdjust="spacing" textLength="172" x="973.5" y="546.822">setCep(cep: String): void</text></g><!--reverse link Candidato to Telefone--><g id="link_Candidato_Telefone"><path codeLine="56" d="M459.4212,115.4206 C394.3512,136.8306 324.73,166.21 262.5,212.78 C217.92,246.14 179.56,297.38 155.06,334.83 " fill="none" id="Candidato-backto-Telefone" style="stroke:#181818;stroke-width:1.0;"/><polygon fill="none" points="470.82,111.67,463.8704,109.7457,459.4212,115.4206,466.3708,117.3449,470.82,111.67" style="stroke:#181818;stroke-width:1.0;"/><text fill="#000000" font-family="sans-serif" font-size="13" lengthAdjust="spacing" textLength="8" x="454.9806" y="110.3726">1</text><text fill="#000000" font-family="sans-serif" font-size="13" lengthAdjust="spacing" textLength="7" x="151.5841" y="324.015">*</text></g><!--reverse link Candidato to Profissao--><g id="link_Candidato_Profissao"><path codeLine="57" d="M537.4204,163.6033 C506.0704,219.8833 469.27,285.94 442.06,334.78 " fill="none" id="Candidato-backto-Profissao" style="stroke:#181818;stroke-width:1.0;"/><polygon fill="none" points="543.26,153.12,536.8458,156.4151,537.4204,163.6033,543.8346,160.3082,543.26,153.12" style="stroke:#181818;stroke-width:1.0;"/><text fill="#000000" font-family="sans-serif" font-size="13" lengthAdjust="spacing" textLength="8" x="531.0434" y="172.8877">0</text><text fill="#000000" font-family="sans-serif" font-size="13" lengthAdjust="spacing" textLength="8" x="437.2325" y="323.958">1</text></g><!--reverse link Candidato to Endereco--><g id="link_Candidato_Endereco"><path codeLine="58" d="M707.859,109.6934 C781.119,130.1234 864.45,160.85 936.5,212.78 C942.18,216.87 947.76,221.26 953.21,225.88 " fill="none" id="Candidato-backto-Endereco" style="stroke:#181818;stroke-width:1.0;"/><polygon fill="none" points="696.3,106.47,701.005,111.9347,707.859,109.6934,703.154,104.2287,696.3,106.47" style="stroke:#181818;stroke-width:1.0;"/><text fill="#000000" font-family="sans-serif" font-size="13" lengthAdjust="spacing" textLength="8" x="704.1475" y="104.8233">1</text><text fill="#000000" font-family="sans-serif" font-size="13" lengthAdjust="spacing" textLength="8" x="937.6361" y="212.8919">1</text></g><!--reverse link Candidato to Admissao--><g id="link_Candidato_Admissao"><path codeLine="59" d="M629.8467,163.5881 C656.5067,211.1581 685.41,262.73 712.06,310.28 " fill="none" id="Candidato-backto-Admissao" style="stroke:#181818;stroke-width:1.0;"/><polygon fill="#181818" points="623.98,153.12,623.424,160.3096,629.8467,163.5881,630.4027,156.3985,623.98,153.12" style="stroke:#181818;stroke-width:1.0;"/><text fill="#000000" font-family="sans-serif" font-size="13" lengthAdjust="spacing" textLength="8" x="619.457" y="172.8877">1</text><text fill="#000000" font-family="sans-serif" font-size="13" lengthAdjust="spacing" textLength="8" x="699.6854" y="299.4124">1</text></g><!--SRC=[RLH1RiCW4Bpx5SYdDfMbzkfR6tADehOVe6OT8ILW0UwbwjyB50nuyINIpB0xkmoPRimOScII2ywi8ZyTSTz0fBh3I3wi5l8QeMcPA-I9NC6UdUxX4UF7PKQmYVAojjDyAy6pmXyiEYN-j-kcOFKJRZ0h2PjJ6u6H26cpWQJpBZ9X2g8wYFfSj9g5CIolP4a8ddOJjsRE9Ag0khxoUztKNGfBu4Wein09IkbkObf8lOzD75nKBAvQtuElHYbQdSTINsJz93becB9rlR9TWkHw1wroqO5yCQ6rsWVDHP7lqmV6CewKiE3BU5zPAv7dqBoUoS5lmK4pmi56Ypa5ByqpiBGYu2qLwq2XZzwA_I19z5al3B-UVy_r1f4g-gzNYckvMOe55nVkl_oNqR_qH0q3wG_zzZfB-ZdIJhOzXTPnzviojACFaKwH_GC0]--></g></svg>