<svg xmlns="http://www.w3.org/2000/svg" xmlns:xlink="http://www.w3.org/1999/xlink" contentStyleType="text/css" height="718px" preserveAspectRatio="none" style="width:462px;height:718px;background:#FFFFFF;" version="1.1" viewBox="0 0 462 718" width="462px" zoomAndPan="magnify"><defs/><g><!--class Pedido--><g id="elem_Pedido"><rect codeLine="3" fill="#F1F1F1" height="194.6719" id="Pedido" rx="2.5" ry="2.5" style="stroke:#181818;stroke-width:0.5;" width="286" x="86.5" y="7"/><ellipse cx="201.25" cy="23" fill="#ADD1B2" rx="11" ry="11" style="stroke:#181818;stroke-width:1.0;"/><path d="M204.2188,28.6406 Q203.6406,28.9375 203,29.0781 Q202.3594,29.2344 201.6563,29.2344 Q199.1563,29.2344 197.8281,27.5938 Q196.5156,25.9375 196.5156,22.8125 Q196.5156,19.6875 197.8281,18.0313 Q199.1563,16.375 201.6563,16.375 Q202.3594,16.375 203,16.5313 Q203.6563,16.6875 204.2188,16.9844 L204.2188,19.7031 Q203.5938,19.125 203,18.8594 Q202.4063,18.5781 201.7813,18.5781 Q200.4375,18.5781 199.75,19.6563 Q199.0625,20.7188 199.0625,22.8125 Q199.0625,24.9063 199.75,25.9844 Q200.4375,27.0469 201.7813,27.0469 Q202.4063,27.0469 203,26.7813 Q203.5938,26.5 204.2188,25.9219 L204.2188,28.6406 Z " fill="#000000"/><text fill="#000000" font-family="sans-serif" font-size="14" lengthAdjust="spacing" textLength="48" x="221.75" y="27.8467">Pedido</text><line style="stroke:#181818;stroke-width:0.5;" x1="87.5" x2="371.5" y1="39" y2="39"/><rect fill="none" height="6" style="stroke:#C82930;stroke-width:1.0;" width="6" x="94.5" y="49.6484"/><text fill="#000000" font-family="sans-serif" font-size="14" lengthAdjust="spacing" textLength="38" x="106.5" y="55.9951">id: int</text><rect fill="none" height="6" style="stroke:#C82930;stroke-width:1.0;" width="6" x="94.5" y="65.9453"/><text fill="#000000" font-family="sans-serif" font-size="14" lengthAdjust="spacing" textLength="123" x="106.5" y="72.292">valorTotal: double</text><rect fill="none" height="6" style="stroke:#C82930;stroke-width:1.0;" width="6" x="94.5" y="82.2422"/><text fill="#000000" font-family="sans-serif" font-size="14" lengthAdjust="spacing" textLength="103" x="106.5" y="88.5889">cliente: Cliente</text><line style="stroke:#181818;stroke-width:0.5;" x1="87.5" x2="371.5" y1="95.8906" y2="95.8906"/><ellipse cx="97.5" cy="109.5391" fill="#84BE84" rx="3" ry="3" style="stroke:#038048;stroke-width:1.0;"/><text fill="#000000" font-family="sans-serif" font-size="14" lengthAdjust="spacing" textLength="71" x="106.5" y="112.8857">getId(): int</text><ellipse cx="97.5" cy="125.8359" fill="#84BE84" rx="3" ry="3" style="stroke:#038048;stroke-width:1.0;"/><text fill="#000000" font-family="sans-serif" font-size="14" lengthAdjust="spacing" textLength="119" x="106.5" y="129.1826">setId(id: int): void</text><ellipse cx="97.5" cy="142.1328" fill="#84BE84" rx="3" ry="3" style="stroke:#038048;stroke-width:1.0;"/><text fill="#000000" font-family="sans-serif" font-size="14" lengthAdjust="spacing" textLength="158" x="106.5" y="145.4795">getValorTotal(): double</text><ellipse cx="97.5" cy="158.4297" fill="#84BE84" rx="3" ry="3" style="stroke:#038048;stroke-width:1.0;"/><text fill="#000000" font-family="sans-serif" font-size="14" lengthAdjust="spacing" textLength="260" x="106.5" y="161.7764">setValorTotal(valorTotal: double): void</text><ellipse cx="97.5" cy="174.7266" fill="#84BE84" rx="3" ry="3" style="stroke:#038048;stroke-width:1.0;"/><text fill="#000000" font-family="sans-serif" font-size="14" lengthAdjust="spacing" textLength="138" x="106.5" y="178.0732">getCliente(): Cliente</text><ellipse cx="97.5" cy="191.0234" fill="#84BE84" rx="3" ry="3" style="stroke:#038048;stroke-width:1.0;"/><text fill="#000000" font-family="sans-serif" font-size="14" lengthAdjust="spacing" textLength="220" x="106.5" y="194.3701">setCliente(cliente: Cliente): void</text></g><!--class Cliente--><g id="elem_Cliente"><rect codeLine="15" fill="#F1F1F1" height="194.6719" id="Cliente" rx="2.5" ry="2.5" style="stroke:#181818;stroke-width:0.5;" width="225" x="7" y="261.68"/><ellipse cx="91.25" cy="277.68" fill="#ADD1B2" rx="11" ry="11" style="stroke:#181818;stroke-width:1.0;"/><path d="M94.2188,283.3206 Q93.6406,283.6175 93,283.7581 Q92.3594,283.9144 91.6563,283.9144 Q89.1563,283.9144 87.8281,282.2738 Q86.5156,280.6175 86.5156,277.4925 Q86.5156,274.3675 87.8281,272.7113 Q89.1563,271.055 91.6563,271.055 Q92.3594,271.055 93,271.2113 Q93.6563,271.3675 94.2188,271.6644 L94.2188,274.3831 Q93.5938,273.805 93,273.5394 Q92.4063,273.2581 91.7813,273.2581 Q90.4375,273.2581 89.75,274.3363 Q89.0625,275.3988 89.0625,277.4925 Q89.0625,279.5863 89.75,280.6644 Q90.4375,281.7269 91.7813,281.7269 Q92.4063,281.7269 93,281.4613 Q93.5938,281.18 94.2188,280.6019 L94.2188,283.3206 Z " fill="#000000"/><text fill="#000000" font-family="sans-serif" font-size="14" lengthAdjust="spacing" textLength="48" x="111.75" y="282.5267">Cliente</text><line style="stroke:#181818;stroke-width:0.5;" x1="8" x2="231" y1="293.68" y2="293.68"/><rect fill="none" height="6" style="stroke:#C82930;stroke-width:1.0;" width="6" x="15" y="304.3284"/><text fill="#000000" font-family="sans-serif" font-size="14" lengthAdjust="spacing" textLength="38" x="27" y="310.6751">id: int</text><rect fill="none" height="6" style="stroke:#C82930;stroke-width:1.0;" width="6" x="15" y="320.6253"/><text fill="#000000" font-family="sans-serif" font-size="14" lengthAdjust="spacing" textLength="89" x="27" y="326.972">nome: String</text><rect fill="none" height="6" style="stroke:#C82930;stroke-width:1.0;" width="6" x="15" y="336.9222"/><text fill="#000000" font-family="sans-serif" font-size="14" lengthAdjust="spacing" textLength="70" x="27" y="343.2689">cpf: String</text><line style="stroke:#181818;stroke-width:0.5;" x1="8" x2="231" y1="350.5706" y2="350.5706"/><ellipse cx="18" cy="364.2191" fill="#84BE84" rx="3" ry="3" style="stroke:#038048;stroke-width:1.0;"/><text fill="#000000" font-family="sans-serif" font-size="14" lengthAdjust="spacing" textLength="71" x="27" y="367.5657">getId(): int</text><ellipse cx="18" cy="380.5159" fill="#84BE84" rx="3" ry="3" style="stroke:#038048;stroke-width:1.0;"/><text fill="#000000" font-family="sans-serif" font-size="14" lengthAdjust="spacing" textLength="119" x="27" y="383.8626">setId(id: int): void</text><ellipse cx="18" cy="396.8128" fill="#84BE84" rx="3" ry="3" style="stroke:#038048;stroke-width:1.0;"/><text fill="#000000" font-family="sans-serif" font-size="14" lengthAdjust="spacing" textLength="123" x="27" y="400.1595">getNome(): String</text><ellipse cx="18" cy="413.1097" fill="#84BE84" rx="3" ry="3" style="stroke:#038048;stroke-width:1.0;"/><text fill="#000000" font-family="sans-serif" font-size="14" lengthAdjust="spacing" textLength="199" x="27" y="416.4564">setNome(nome: String): void</text><ellipse cx="18" cy="429.4066" fill="#84BE84" rx="3" ry="3" style="stroke:#038048;stroke-width:1.0;"/><text fill="#000000" font-family="sans-serif" font-size="14" lengthAdjust="spacing" textLength="105" x="27" y="432.7532">getCpf(): String</text><ellipse cx="18" cy="445.7034" fill="#84BE84" rx="3" ry="3" style="stroke:#038048;stroke-width:1.0;"/><text fill="#000000" font-family="sans-serif" font-size="14" lengthAdjust="spacing" textLength="162" x="27" y="449.0501">setCpf(cpf: String): void</text></g><!--class ItemPedido--><g id="elem_ItemPedido"><rect codeLine="26" fill="#F1F1F1" height="96.8906" id="ItemPedido" rx="2.5" ry="2.5" style="stroke:#181818;stroke-width:0.5;" width="145" x="267" y="310.57"/><ellipse cx="297.75" cy="326.57" fill="#ADD1B2" rx="11" ry="11" style="stroke:#181818;stroke-width:1.0;"/><path d="M300.7188,332.2106 Q300.1406,332.5075 299.5,332.6481 Q298.8594,332.8044 298.1563,332.8044 Q295.6563,332.8044 294.3281,331.1638 Q293.0156,329.5075 293.0156,326.3825 Q293.0156,323.2575 294.3281,321.6013 Q295.6563,319.945 298.1563,319.945 Q298.8594,319.945 299.5,320.1013 Q300.1563,320.2575 300.7188,320.5544 L300.7188,323.2731 Q300.0938,322.695 299.5,322.4294 Q298.9063,322.1481 298.2813,322.1481 Q296.9375,322.1481 296.25,323.2263 Q295.5625,324.2888 295.5625,326.3825 Q295.5625,328.4763 296.25,329.5544 Q296.9375,330.6169 298.2813,330.6169 Q298.9063,330.6169 299.5,330.3513 Q300.0938,330.07 300.7188,329.4919 L300.7188,332.2106 Z " fill="#000000"/><text fill="#000000" font-family="sans-serif" font-size="14" lengthAdjust="spacing" textLength="78" x="315.25" y="331.4167">ItemPedido</text><line style="stroke:#181818;stroke-width:0.5;" x1="268" x2="411" y1="342.57" y2="342.57"/><rect fill="none" height="6" style="stroke:#C82930;stroke-width:1.0;" width="6" x="275" y="353.2184"/><text fill="#000000" font-family="sans-serif" font-size="14" lengthAdjust="spacing" textLength="38" x="287" y="359.5651">id: int</text><line style="stroke:#181818;stroke-width:0.5;" x1="268" x2="411" y1="366.8669" y2="366.8669"/><ellipse cx="278" cy="380.5153" fill="#84BE84" rx="3" ry="3" style="stroke:#038048;stroke-width:1.0;"/><text fill="#000000" font-family="sans-serif" font-size="14" lengthAdjust="spacing" textLength="71" x="287" y="383.862">getId(): int</text><ellipse cx="278" cy="396.8122" fill="#84BE84" rx="3" ry="3" style="stroke:#038048;stroke-width:1.0;"/><text fill="#000000" font-family="sans-serif" font-size="14" lengthAdjust="spacing" textLength="119" x="287" y="400.1589">setId(id: int): void</text></g><!--class Produto--><g id="elem_Produto"><rect codeLine="31" fill="#F1F1F1" height="194.6719" id="Produto" rx="2.5" ry="2.5" style="stroke:#181818;stroke-width:0.5;" width="232" x="223.5" y="516.35"/><ellipse cx="307.75" cy="532.35" fill="#ADD1B2" rx="11" ry="11" style="stroke:#181818;stroke-width:1.0;"/><path d="M310.7188,537.9906 Q310.1406,538.2875 309.5,538.4281 Q308.8594,538.5844 308.1563,538.5844 Q305.6563,538.5844 304.3281,536.9438 Q303.0156,535.2875 303.0156,532.1625 Q303.0156,529.0375 304.3281,527.3813 Q305.6563,525.725 308.1563,525.725 Q308.8594,525.725 309.5,525.8813 Q310.1563,526.0375 310.7188,526.3344 L310.7188,529.0531 Q310.0938,528.475 309.5,528.2094 Q308.9063,527.9281 308.2813,527.9281 Q306.9375,527.9281 306.25,529.0063 Q305.5625,530.0688 305.5625,532.1625 Q305.5625,534.2563 306.25,535.3344 Q306.9375,536.3969 308.2813,536.3969 Q308.9063,536.3969 309.5,536.1313 Q310.0938,535.85 310.7188,535.2719 L310.7188,537.9906 Z " fill="#000000"/><text fill="#000000" font-family="sans-serif" font-size="14" lengthAdjust="spacing" textLength="55" x="328.25" y="537.1967">Produto</text><line style="stroke:#181818;stroke-width:0.5;" x1="224.5" x2="454.5" y1="548.35" y2="548.35"/><rect fill="none" height="6" style="stroke:#C82930;stroke-width:1.0;" width="6" x="231.5" y="558.9984"/><text fill="#000000" font-family="sans-serif" font-size="14" lengthAdjust="spacing" textLength="38" x="243.5" y="565.3451">id: int</text><rect fill="none" height="6" style="stroke:#C82930;stroke-width:1.0;" width="6" x="231.5" y="575.2953"/><text fill="#000000" font-family="sans-serif" font-size="14" lengthAdjust="spacing" textLength="89" x="243.5" y="581.642">nome: String</text><rect fill="none" height="6" style="stroke:#C82930;stroke-width:1.0;" width="6" x="231.5" y="591.5922"/><text fill="#000000" font-family="sans-serif" font-size="14" lengthAdjust="spacing" textLength="97" x="243.5" y="597.9389">preco: double</text><line style="stroke:#181818;stroke-width:0.5;" x1="224.5" x2="454.5" y1="605.2406" y2="605.2406"/><ellipse cx="234.5" cy="618.8891" fill="#84BE84" rx="3" ry="3" style="stroke:#038048;stroke-width:1.0;"/><text fill="#000000" font-family="sans-serif" font-size="14" lengthAdjust="spacing" textLength="71" x="243.5" y="622.2357">getId(): int</text><ellipse cx="234.5" cy="635.1859" fill="#84BE84" rx="3" ry="3" style="stroke:#038048;stroke-width:1.0;"/><text fill="#000000" font-family="sans-serif" font-size="14" lengthAdjust="spacing" textLength="119" x="243.5" y="638.5326">setId(id: int): void</text><ellipse cx="234.5" cy="651.4828" fill="#84BE84" rx="3" ry="3" style="stroke:#038048;stroke-width:1.0;"/><text fill="#000000" font-family="sans-serif" font-size="14" lengthAdjust="spacing" textLength="123" x="243.5" y="654.8295">getNome(): String</text><ellipse cx="234.5" cy="667.7797" fill="#84BE84" rx="3" ry="3" style="stroke:#038048;stroke-width:1.0;"/><text fill="#000000" font-family="sans-serif" font-size="14" lengthAdjust="spacing" textLength="199" x="243.5" y="671.1264">setNome(nome: String): void</text><ellipse cx="234.5" cy="684.0766" fill="#84BE84" rx="3" ry="3" style="stroke:#038048;stroke-width:1.0;"/><text fill="#000000" font-family="sans-serif" font-size="14" lengthAdjust="spacing" textLength="130" x="243.5" y="687.4232">getPreco(): double</text><ellipse cx="234.5" cy="700.3734" fill="#84BE84" rx="3" ry="3" style="stroke:#038048;stroke-width:1.0;"/><text fill="#000000" font-family="sans-serif" font-size="14" lengthAdjust="spacing" textLength="206" x="243.5" y="703.7201">setPreco(preco: double): void</text></g><!--reverse link Pedido to Cliente--><g id="link_Pedido_Cliente"><path codeLine="43" d="M182.6497,212.9524 C174.1597,232.4524 170.02,241.96 161.53,261.46 " fill="none" id="Pedido-backto-Cliente" style="stroke:#181818;stroke-width:1.0;"/><polygon fill="#181818" points="187.44,201.95,181.3774,205.8544,182.6497,212.9524,188.7123,209.048,187.44,201.95" style="stroke:#181818;stroke-width:1.0;"/><text fill="#000000" font-family="sans-serif" font-size="13" lengthAdjust="spacing" textLength="8" x="176.0575" y="221.7411">1</text><text fill="#000000" font-family="sans-serif" font-size="13" lengthAdjust="spacing" textLength="8" x="156.4417" y="250.4886">1</text></g><!--reverse link Pedido to ItemPedido--><g id="link_Pedido_ItemPedido"><path codeLine="44" d="M276.35,212.9525 C292.48,250.0025 305.4,279.68 318.69,310.21 " fill="none" id="Pedido-backto-ItemPedido" style="stroke:#181818;stroke-width:1.0;"/><polygon fill="#181818" points="271.56,201.95,270.2875,209.0479,276.35,212.9525,277.6225,205.8546,271.56,201.95" style="stroke:#181818;stroke-width:1.0;"/><text fill="#000000" font-family="sans-serif" font-size="13" lengthAdjust="spacing" textLength="8" x="266.355" y="221.7411">1</text><text fill="#000000" font-family="sans-serif" font-size="13" lengthAdjust="spacing" textLength="7" x="308.2714" y="299.3683">*</text></g><!--reverse link ItemPedido to Produto--><g id="link_ItemPedido_Produto"><path codeLine="45" d="M339.5,419.83 C339.5,450.31 339.5,478.88 339.5,515.87 " fill="none" id="ItemPedido-backto-Produto" style="stroke:#181818;stroke-width:1.0;"/><polygon fill="#181818" points="339.5,407.83,335.5,413.83,339.5,419.83,343.5,413.83,339.5,407.83" style="stroke:#181818;stroke-width:1.0;"/><text fill="#000000" font-family="sans-serif" font-size="13" lengthAdjust="spacing" textLength="8" x="330.9625" y="427.4731">1</text><text fill="#000000" font-family="sans-serif" font-size="13" lengthAdjust="spacing" textLength="8" x="331.2063" y="505.2076">1</text></g><!--SRC=[lLAnRiCW5Dpz5SXBqaIkbTLhfooLfKRTgI4k4l0GF6U9ykyr1iVOSQLqgHVCFUwuTxpDDw9nLLaQIJLsIhuseCf6KkSA9cXhgSgoOKjgpWG3Sir8_nM2LKHe39iBbM1FW5HMX47t9Nd06ocuHbwHj_0peFkMuv5jNoR-tWr8bEmB5n3iVlRpBkuvYRod9SL74qkbwCBBp0ovgRHqF4hSnXGYlXg31jKpFz0AtSO0p7a6_BNtzrxHdqubN8JJsnuwDUSLcaSJHrDleRKZSlNx8pzhVLIhBR0EuScWZEKDp5_tdwAg_SqhanNmcQza669E-I4dkw8Ord6abgLTdYIR9I6dv9ZM3m00]--></g></svg>